<svg xmlns="http://www.w3.org/2000/svg" width="1576" height="334" version="1.2" viewBox="0 0 1576 334" id="meesho">
  <defs>
    <clipPath id="cp1" clipPathUnits="userSpaceOnUse">
      <path d="m0-15h1576v364h-1576z"></path>
    </clipPath>
  </defs>
  <g id="Clip-Path" clip-path="url(#cp1)">
    <g id="Layer">
      <path id="Layer" fill-rule="evenodd" d="m552.4 229h-139.2c2 17.8 7.6 31.8 16.9 41.7 11.9 12.4 29.3 18.6 52.3 18.6q12 0 27-2.9 3.7-0.8 7.3-1.8 3.7-1 7.2-2.3 3.6-1.3 7-2.9 3.5-1.6 6.8-3.4c6.5-3.7 12.1-5.3 17-4.8 5 0.4 8.9 2.2 11.8 5.3q1.1 1.1 2 2.4 0.9 1.4 1.5 2.8 0.7 1.4 1.1 3 0.5 1.5 0.7 3.1c0.6 4.4-0.2 9-2.6 13.6q-3.4 6.9-11.7 12c-10.8 6.7-23.1 11.7-37.1 14.9q-20.9 4.9-38.9 4.9c-25.5 0-47.4-4.8-65.8-14.3q-27.7-14.3-42.7-40.6c-10-17.5-14.9-38.3-14.9-62.2q0-35.1 14.5-61.3c9.7-17.5 23-31.3 40.1-41.3q25.5-15 58.2-15 24 0 43.1 7.9 4.7 1.8 9.1 4.2 4.4 2.4 8.5 5.2 4.1 2.9 7.9 6.2 3.8 3.2 7.2 6.9 13.6 14.8 20.7 35.8 7.2 21 7.2 47.2 0 8.3-5.8 12.7c-3.8 2.9-9.2 4.4-16.4 4.4zm-132.8-57c-3 7.1-5 15.1-6.1 23.8h112.9c-0.5-11.1-2.5-20.7-5.9-28.6-4.1-9.5-10.1-16.8-18-21.9q-11.7-7.6-29.2-7.6-19.4 0-33 9-13.5 9-20.7 25.3zm383.6 57h-139.2c1.9 17.8 7.5 31.8 16.9 41.7 11.8 12.4 29.2 18.6 52.3 18.6q11.9 0 26.9-2.9 3.8-0.8 7.4-1.8 3.7-1 7.2-2.3 3.6-1.3 7-2.9 3.5-1.6 6.8-3.4c6.4-3.7 12.1-5.3 17-4.8 4.9 0.4 8.8 2.2 11.8 5.3q1 1.1 1.9 2.4 0.9 1.4 1.6 2.8 0.7 1.4 1.1 3 0.5 1.5 0.7 3.1c0.6 4.4-0.3 9-2.6 13.6q-3.4 6.9-11.7 12c-10.8 6.7-23.1 11.7-37.1 14.9q-20.9 4.9-38.9 4.9c-25.5 0-47.4-4.8-65.9-14.3-18.4-9.6-32.6-23.1-42.6-40.6-10-17.5-14.9-38.3-14.9-62.2q0-35.1 14.5-61.3c9.7-17.5 23-31.3 40.1-41.3q25.5-15 58.2-15 24 0 43.1 7.9 4.6 1.8 9 4.2 4.5 2.4 8.6 5.2 4.1 2.9 7.9 6.2 3.8 3.3 7.2 6.9 13.6 14.8 20.7 35.8 7.1 21 7.2 47.2 0 8.3-5.8 12.7-5.7 4.4-16.4 4.4zm-132.8-57c-3.1 7.1-5.1 15.1-6.1 23.8h112.9c-0.6-11.1-2.5-20.7-6-28.6-4.1-9.5-10.1-16.8-17.9-21.9q-11.7-7.6-29.2-7.6-19.4 0-33 9-13.6 9-20.7 25.3zm364.9 49.4q15.4 14.8 15.4 39.7 0 33.6-26.3 52.8c-17.5 12.7-40.8 19.1-70 19.1q-19.8 0-41.9-4.2c-14.7-2.7-27.9-7.5-39.6-14.2-4.9-3.1-8.4-6.7-10.3-10.9q-0.8-1.4-1.3-2.9-0.5-1.5-0.8-3.1-0.3-1.6-0.3-3.2-0.1-1.6 0.1-3.2 0.6-6.2 4.6-10.9c2.5-3 5.9-5 10.1-5.9q6.2-1.4 13.6 2.3 18.4 8.7 34.5 12.2c10.8 2.3 21.4 3.4 31.8 3.4 14.8 0 25.7-2.5 32.9-7.6 7.2-5 10.9-11.7 10.9-20q-0.1-10.6-7.2-16.4-7.2-5.7-21.4-8.5l-46.1-8.8c-19-3.7-33.5-10.6-43.5-21-10-10.2-15-23.5-15-39.8q0-22.1 12.3-38.3c8.1-10.7 19.4-19 33.8-24.9q21.7-8.7 49.8-8.7c13.5 0 26.1 1.4 38 4.3q4.5 1.2 8.9 2.6 4.4 1.4 8.7 3.1 4.3 1.7 8.5 3.7 4.2 2 8.2 4.3c4.6 2.4 7.8 5.7 9.4 9.6q0.7 1.5 1 3 0.4 1.5 0.6 3.1 0.1 1.5 0 3.1-0.1 1.5-0.4 3.1-0.4 1.5-0.9 3-0.5 1.4-1.2 2.8-0.7 1.4-1.6 2.7-0.8 1.4-1.8 2.5-1 1.2-2.2 2.2-1.2 1-2.5 1.8-1.3 0.7-2.7 1.3-1.5 0.5-3 0.8c-4.2 0.7-8.9-0.1-14.1-2.6q-14.2-7.3-27.4-10.6-13-3.2-25-3.2c-15.1 0-26.2 2.7-33.4 7.8q-10.8 7.9-10.8 20.8 0 9.7 6.4 16.2c4.3 4.3 10.9 7.2 19.8 8.7l46.1 8.8c19.9 3.7 35.1 10.5 45.3 20.1zm259.9-81.1q8.8 20.5 8.8 51.8v111.6c0 9.5-2.5 16.8-7.4 21.9q-7.4 7.6-21.2 7.6-13.8 0-21.4-7.6-7.6-7.6-7.6-21.9v-108.8q0-26.3-9.9-38.3-9.9-12-30.6-12c-16.9 0-30.4 5.4-40.4 16q-14.9 15.8-14.9 42.1v101c0 19.7-9.7 29.5-29 29.5q-13.9 0-21.2-7.6-7.4-7.6-7.4-21.9v-273.8c0-9.6 2.4-16.8 7.4-21.7 4.9-4.9 11.9-7.4 21.2-7.4q13.8 0 21.4 7.4c5 4.9 7.6 12.1 7.6 21.7v106.9q2.3-3.8 5.1-7.3 2.7-3.4 5.9-6.6 3.2-3.1 6.7-5.8 3.5-2.7 7.4-5c14.2-8.5 30.4-12.7 48.5-12.7 18.1 0 33 3.4 44.7 10.2 11.7 6.8 20.4 17 26.3 30.7zm266.5 13.1c9.6 17.6 14.3 38.3 14.3 62.3q0 27.2-8 48.8-8.1 21.6-23.3 37.1c-10.2 10.3-22.3 18.1-36.4 23.5-14.2 5.4-30 8.1-47.5 8.1-23.3 0-43.6-4.8-60.8-14.3-17.2-9.6-30.6-23.1-40.1-40.8q-14.2-26.5-14.2-62.5c0-18.1 2.6-34.3 8-48.6 5.4-14.3 13.2-26.6 23.3-36.9 10.1-10.3 22.3-18.1 36.4-23.5 14.1-5.4 29.9-8.1 47.4-8.1 23.4 0 43.7 4.8 60.8 14.3 17.2 9.5 30.6 23.1 40.1 40.6zm-43.7 62.2c0-24.6-5.2-43-15.7-55.1q-15.6-18.2-41.4-18.2c-11.4 0-21.4 2.6-29.9 8-8.6 5.4-15.3 13.6-20.1 24.5-4.7 10.9-7.1 24.5-7.1 40.8q0 36.4 15.6 55.1c10.5 12.4 24.3 18.6 41.5 18.6q17 0 29.9-8.2c8.6-5.5 15.3-13.8 20-24.7q7.2-16.3 7.2-40.8zm-1361.3 117.5c-14 0-25.8-11.8-25.8-25.8v-118.3c0.1-21.8-18.1-39.5-39.6-39.2-21.6-0.3-39.8 17.4-39.7 39.3v118.2c0 3.4-0.7 6.7-2 9.9-1.3 3.1-3.2 6-5.6 8.4-2.3 2.4-5.2 4.3-8.3 5.6-3.1 1.3-6.5 1.9-9.9 1.9-13.9 0-25.8-11.9-25.8-25.8v-117.9c0-5.9 0.6-11.9 1.7-17.8 1.2-5.9 2.9-11.6 5.2-17.1 2.3-5.6 5.1-10.9 8.5-15.8 3.3-5 7.1-9.6 11.4-13.9 4.2-4.2 8.8-8 13.8-11.3 4.9-3.4 10.2-6.2 15.7-8.5 5.6-2.3 11.3-4 17.2-5.2 5.8-1.1 11.8-1.7 17.8-1.7 6 0 12.1 0.6 18.1 1.8 6 1.2 11.8 3 17.4 5.4 5.6 2.3 11 5.3 16 8.7 5 3.5 9.7 7.4 14 11.8 4.2-4.4 8.9-8.3 13.9-11.8 5-3.4 10.4-6.4 16-8.7 5.6-2.4 11.4-4.2 17.4-5.4 6-1.2 12.1-1.8 18.2-1.8 5.9 0 11.9 0.6 17.8 1.7 5.8 1.2 11.6 2.9 17.1 5.2 5.5 2.3 10.8 5.1 15.8 8.5 4.9 3.3 9.5 7.1 13.8 11.4 4.2 4.2 8 8.8 11.3 13.8 3.4 5 6.2 10.3 8.5 15.8 2.3 5.5 4 11.3 5.2 17.1 1.1 5.9 1.7 11.9 1.7 17.9v117.8c0 13.9-11.9 25.8-25.8 25.8-3.4 0-6.7-0.6-9.9-1.9-3.1-1.3-5.9-3.2-8.3-5.6-2.4-2.4-4.3-5.3-5.6-8.4-1.3-3.1-2-6.5-2-9.9v-118.3c0.1-21.8-18.1-39.5-39.6-39.2-21.6-0.3-39.8 17.4-39.7 39.3v118.2c-0.1 14-11.9 25.8-25.9 25.8z" style="fill:#570d48"></path>
    </g>
  </g>
</svg>
